<mxfile host="Electron" agent="Mozilla/5.0 (Windows NT 10.0; Win64; x64) AppleWebKit/537.36 (KHTML, like Gecko) draw.io/24.7.5 Chrome/126.0.6478.183 Electron/31.3.0 Safari/537.36" version="24.7.5">
  <diagram name="第 1 页" id="1euBk43ChWQjsX_uh7dw">
    <mxGraphModel dx="1434" dy="844" grid="1" gridSize="10" guides="1" tooltips="1" connect="1" arrows="1" fold="1" page="1" pageScale="1" pageWidth="827" pageHeight="1169" math="0" shadow="0">
      <root>
        <mxCell id="0" />
        <mxCell id="1" parent="0" />
        <mxCell id="cggbCq29O87j-hv1M2DI-12" value="" style="rounded=0;whiteSpace=wrap;html=1;dashed=1;" vertex="1" parent="1">
          <mxGeometry x="80" y="231" width="680" height="380" as="geometry" />
        </mxCell>
        <mxCell id="JLECqOJiSJDtoSXum6k1-1" value="" style="rounded=0;whiteSpace=wrap;html=1;" parent="1" vertex="1">
          <mxGeometry x="170" y="240" width="580" height="60" as="geometry" />
        </mxCell>
        <mxCell id="JLECqOJiSJDtoSXum6k1-2" value="客户端SDK" style="text;html=1;align=center;verticalAlign=middle;whiteSpace=wrap;rounded=0;" parent="1" vertex="1">
          <mxGeometry x="90" y="260" width="60" height="30" as="geometry" />
        </mxCell>
        <mxCell id="JLECqOJiSJDtoSXum6k1-3" value="JS&amp;nbsp;" style="rounded=0;whiteSpace=wrap;html=1;fillColor=#dae8fc;strokeColor=#6c8ebf;" parent="1" vertex="1">
          <mxGeometry x="190" y="260" width="70" height="25" as="geometry" />
        </mxCell>
        <mxCell id="JLECqOJiSJDtoSXum6k1-4" value="Flutter" style="rounded=0;whiteSpace=wrap;html=1;fillColor=#dae8fc;strokeColor=#6c8ebf;" parent="1" vertex="1">
          <mxGeometry x="284" y="260" width="70" height="25" as="geometry" />
        </mxCell>
        <mxCell id="JLECqOJiSJDtoSXum6k1-5" value="Electron" style="rounded=0;whiteSpace=wrap;html=1;fillColor=#dae8fc;strokeColor=#6c8ebf;" parent="1" vertex="1">
          <mxGeometry x="378" y="260" width="70" height="25" as="geometry" />
        </mxCell>
        <mxCell id="JLECqOJiSJDtoSXum6k1-6" value="Android" style="rounded=0;whiteSpace=wrap;html=1;fillColor=#dae8fc;strokeColor=#6c8ebf;" parent="1" vertex="1">
          <mxGeometry x="472" y="260" width="70" height="25" as="geometry" />
        </mxCell>
        <mxCell id="JLECqOJiSJDtoSXum6k1-7" value="iOS" style="rounded=0;whiteSpace=wrap;html=1;fillColor=#dae8fc;strokeColor=#6c8ebf;" parent="1" vertex="1">
          <mxGeometry x="566" y="260" width="70" height="25" as="geometry" />
        </mxCell>
        <mxCell id="JLECqOJiSJDtoSXum6k1-8" value="C++" style="rounded=0;whiteSpace=wrap;html=1;fillColor=#dae8fc;strokeColor=#6c8ebf;" parent="1" vertex="1">
          <mxGeometry x="660" y="260" width="70" height="25" as="geometry" />
        </mxCell>
        <mxCell id="JLECqOJiSJDtoSXum6k1-9" value="应用层" style="text;html=1;align=center;verticalAlign=middle;whiteSpace=wrap;rounded=0;" parent="1" vertex="1">
          <mxGeometry x="90" y="375" width="60" height="30" as="geometry" />
        </mxCell>
        <mxCell id="JLECqOJiSJDtoSXum6k1-10" value="" style="rounded=0;whiteSpace=wrap;html=1;verticalAlign=top;" parent="1" vertex="1">
          <mxGeometry x="170" y="330" width="470" height="120" as="geometry" />
        </mxCell>
        <mxCell id="JLECqOJiSJDtoSXum6k1-14" value="用户模块" style="rounded=0;whiteSpace=wrap;html=1;fillColor=#f8cecc;strokeColor=#b85450;" parent="1" vertex="1">
          <mxGeometry x="184" y="345" width="100" height="30" as="geometry" />
        </mxCell>
        <mxCell id="JLECqOJiSJDtoSXum6k1-15" value="群组模块" style="rounded=0;whiteSpace=wrap;html=1;fillColor=#f8cecc;strokeColor=#b85450;" parent="1" vertex="1">
          <mxGeometry x="300" y="345" width="100" height="30" as="geometry" />
        </mxCell>
        <mxCell id="JLECqOJiSJDtoSXum6k1-16" value="消息分发模块" style="rounded=0;whiteSpace=wrap;html=1;fillColor=#f8cecc;strokeColor=#b85450;" parent="1" vertex="1">
          <mxGeometry x="413.5" y="345" width="100" height="30" as="geometry" />
        </mxCell>
        <mxCell id="JLECqOJiSJDtoSXum6k1-17" value="历史消息" style="rounded=0;whiteSpace=wrap;html=1;fillColor=#f8cecc;strokeColor=#b85450;" parent="1" vertex="1">
          <mxGeometry x="530" y="345" width="100" height="30" as="geometry" />
        </mxCell>
        <mxCell id="JLECqOJiSJDtoSXum6k1-18" value="推送聚合模块" style="rounded=0;whiteSpace=wrap;html=1;fillColor=#f8cecc;strokeColor=#b85450;" parent="1" vertex="1">
          <mxGeometry x="530" y="400" width="100" height="30" as="geometry" />
        </mxCell>
        <mxCell id="JLECqOJiSJDtoSXum6k1-27" value="" style="group" parent="1" vertex="1" connectable="0">
          <mxGeometry x="650" y="330" width="100" height="380" as="geometry" />
        </mxCell>
        <mxCell id="JLECqOJiSJDtoSXum6k1-19" value="平台推送中心" style="rounded=0;whiteSpace=wrap;html=1;verticalAlign=top;" parent="JLECqOJiSJDtoSXum6k1-27" vertex="1">
          <mxGeometry width="100" height="270" as="geometry" />
        </mxCell>
        <mxCell id="JLECqOJiSJDtoSXum6k1-21" value="华为推送" style="rounded=0;whiteSpace=wrap;html=1;" parent="JLECqOJiSJDtoSXum6k1-27" vertex="1">
          <mxGeometry x="11.5" y="26" width="80" height="30" as="geometry" />
        </mxCell>
        <mxCell id="JLECqOJiSJDtoSXum6k1-22" value="苹果推送" style="rounded=0;whiteSpace=wrap;html=1;" parent="JLECqOJiSJDtoSXum6k1-27" vertex="1">
          <mxGeometry x="11.5" y="66" width="80" height="30" as="geometry" />
        </mxCell>
        <mxCell id="JLECqOJiSJDtoSXum6k1-23" value="小米推送" style="rounded=0;whiteSpace=wrap;html=1;" parent="JLECqOJiSJDtoSXum6k1-27" vertex="1">
          <mxGeometry x="11.5" y="106" width="80" height="30" as="geometry" />
        </mxCell>
        <mxCell id="JLECqOJiSJDtoSXum6k1-24" value="荣耀推送" style="rounded=0;whiteSpace=wrap;html=1;" parent="JLECqOJiSJDtoSXum6k1-27" vertex="1">
          <mxGeometry x="11.5" y="146" width="80" height="30" as="geometry" />
        </mxCell>
        <mxCell id="JLECqOJiSJDtoSXum6k1-25" value="Oppo推送" style="rounded=0;whiteSpace=wrap;html=1;" parent="JLECqOJiSJDtoSXum6k1-27" vertex="1">
          <mxGeometry x="11.5" y="186" width="80" height="30" as="geometry" />
        </mxCell>
        <mxCell id="JLECqOJiSJDtoSXum6k1-26" value="Vivo推送" style="rounded=0;whiteSpace=wrap;html=1;" parent="JLECqOJiSJDtoSXum6k1-27" vertex="1">
          <mxGeometry x="11.5" y="229" width="80" height="30" as="geometry" />
        </mxCell>
        <mxCell id="cggbCq29O87j-hv1M2DI-1" value="" style="group;fillColor=#d5e8d4;strokeColor=#82b366;" vertex="1" connectable="0" parent="1">
          <mxGeometry x="170" y="489" width="210" height="110" as="geometry" />
        </mxCell>
        <mxCell id="JLECqOJiSJDtoSXum6k1-11" value="基础设施" style="rounded=0;whiteSpace=wrap;html=1;verticalAlign=top;" parent="cggbCq29O87j-hv1M2DI-1" vertex="1">
          <mxGeometry width="210" height="110" as="geometry" />
        </mxCell>
        <mxCell id="JLECqOJiSJDtoSXum6k1-12" value="注册中心" style="rounded=0;whiteSpace=wrap;html=1;fillColor=#d5e8d4;strokeColor=#82b366;" parent="cggbCq29O87j-hv1M2DI-1" vertex="1">
          <mxGeometry x="10" y="63" width="90" height="35" as="geometry" />
        </mxCell>
        <mxCell id="JLECqOJiSJDtoSXum6k1-13" value="Puslar" style="rounded=0;whiteSpace=wrap;html=1;fillColor=#d5e8d4;strokeColor=#82b366;" parent="cggbCq29O87j-hv1M2DI-1" vertex="1">
          <mxGeometry x="110" y="63" width="90" height="35" as="geometry" />
        </mxCell>
        <mxCell id="cggbCq29O87j-hv1M2DI-2" value="推送模块" style="rounded=0;whiteSpace=wrap;html=1;fillColor=#f8cecc;strokeColor=#b85450;" vertex="1" parent="1">
          <mxGeometry x="184" y="400" width="100" height="30" as="geometry" />
        </mxCell>
        <mxCell id="cggbCq29O87j-hv1M2DI-3" value="" style="group;fillColor=#d5e8d4;strokeColor=#82b366;" vertex="1" connectable="0" parent="1">
          <mxGeometry x="430" y="489" width="210" height="111" as="geometry" />
        </mxCell>
        <mxCell id="cggbCq29O87j-hv1M2DI-4" value="数据库" style="rounded=0;whiteSpace=wrap;html=1;verticalAlign=top;" vertex="1" parent="cggbCq29O87j-hv1M2DI-3">
          <mxGeometry width="210" height="110" as="geometry" />
        </mxCell>
        <mxCell id="cggbCq29O87j-hv1M2DI-7" value="" style="shape=cylinder3;whiteSpace=wrap;html=1;boundedLbl=1;backgroundOutline=1;size=15;fillColor=#d5e8d4;strokeColor=#82b366;" vertex="1" parent="cggbCq29O87j-hv1M2DI-3">
          <mxGeometry x="82.36999999999999" y="29.5" width="41.25" height="55" as="geometry" />
        </mxCell>
        <mxCell id="cggbCq29O87j-hv1M2DI-11" value="pgSQL" style="text;html=1;align=center;verticalAlign=middle;whiteSpace=wrap;rounded=0;" vertex="1" parent="cggbCq29O87j-hv1M2DI-3">
          <mxGeometry x="75" y="86" width="60" height="20" as="geometry" />
        </mxCell>
        <mxCell id="cggbCq29O87j-hv1M2DI-8" value="基础层" style="text;html=1;align=center;verticalAlign=middle;whiteSpace=wrap;rounded=0;" vertex="1" parent="1">
          <mxGeometry x="90" y="529.5" width="60" height="30" as="geometry" />
        </mxCell>
      </root>
    </mxGraphModel>
  </diagram>
</mxfile>
